<svg width="800" height="450" viewBox="0 0 800 450" fill="none" xmlns="http://www.w3.org/2000/svg">
<rect width="800" height="450" fill="url(#paint0_linear_5680_2)"/>
<path d="M329.999 232.5L329.999 250C329.999 252.761 332.238 255 334.999 255H352.499" stroke="#D33D3D" stroke-width="5" stroke-linecap="round"/>
<path d="M367.5 155L392.5 155" stroke="#D33D3D" stroke-width="5" stroke-linecap="round"/>
<path d="M407.5 155L432.5 155" stroke="#D33D3D" stroke-width="5" stroke-linecap="round"/>
<path d="M470.001 232.5L470.001 250C470.001 252.761 467.762 255 465.001 255H447.501" stroke="#D33D3D" stroke-width="5" stroke-linecap="round"/>
<path d="M329.999 177.5L329.999 160C329.999 157.239 332.238 155 334.999 155H352.499" stroke="#D33D3D" stroke-width="5" stroke-linecap="round"/>
<path d="M407.5 255L432.5 255" stroke="#D33D3D" stroke-width="5" stroke-linecap="round"/>
<path d="M367.5 255L392.5 255" stroke="#D33D3D" stroke-width="5" stroke-linecap="round"/>
<path d="M470.001 177.5L470.001 160C470.001 157.239 467.762 155 465.001 155H447.501" stroke="#D33D3D" stroke-width="5" stroke-linecap="round"/>
<path d="M330 212.5L330 217.5" stroke="#D33D3D" stroke-width="5" stroke-linecap="round"/>
<path d="M330 192.5L330 197.5" stroke="#D33D3D" stroke-width="5" stroke-linecap="round"/>
<path d="M470 212.5L470 217.5" stroke="#D33D3D" stroke-width="5" stroke-linecap="round"/>
<path d="M470 192.5L470 197.5" stroke="#D33D3D" stroke-width="5" stroke-linecap="round"/>
<path d="M367.5 295L392.5 295" stroke="#D33D3D" stroke-width="5" stroke-linecap="round"/>
<path d="M407.5 295L432.5 295" stroke="#D33D3D" stroke-width="5" stroke-linecap="round"/>
<path d="M400 272.5L400 277.5" stroke="#D33D3D" stroke-width="5" stroke-linecap="round"/>
<defs>
<linearGradient id="paint0_linear_5680_2" x1="377.262" y1="3.12975e-05" x2="424.55" y2="240.166" gradientUnits="userSpaceOnUse">
<stop stop-color="#FFE4E3"/>
<stop offset="1" stop-color="white"/>
</linearGradient>
</defs>
</svg>
