<svg width="800" height="450" viewBox="0 0 800 450" fill="none" xmlns="http://www.w3.org/2000/svg">
<rect width="800" height="450" fill="url(#paint0_linear_5680_59)"/>
<path d="M407.5 235L430 257.5" stroke="#262930" stroke-width="5" stroke-linecap="round"/>
<path d="M327.5 155L350 177.5" stroke="#262930" stroke-width="5" stroke-linecap="round"/>
<path d="M367.5 155L390 177.5" stroke="#262930" stroke-width="5" stroke-linecap="round"/>
<path d="M327.5 235L350 257.5" stroke="#262930" stroke-width="5" stroke-linecap="round"/>
<path d="M407.5 295L430 272.5" stroke="#262930" stroke-width="5" stroke-linecap="round"/>
<path d="M327.5 215L350 192.5" stroke="#262930" stroke-width="5" stroke-linecap="round"/>
<path d="M367.5 215L390 192.5" stroke="#262930" stroke-width="5" stroke-linecap="round"/>
<path d="M327.5 295L350 272.5" stroke="#262930" stroke-width="5" stroke-linecap="round"/>
<path d="M447.5 155L470 177.5" stroke="#262930" stroke-width="5" stroke-linecap="round"/>
<path d="M447.5 215L470 192.5" stroke="#262930" stroke-width="5" stroke-linecap="round"/>
<path d="M407.5 155L410 157.5M430 177.5L427.5 175M417.5 165L420 167.5" stroke="#4EAAC8" stroke-width="5" stroke-linecap="round"/>
<path d="M446.25 235L448.75 237.5M468.75 257.5L466.25 255M456.25 245L458.75 247.5" stroke="#4EAAC8" stroke-width="5" stroke-linecap="round"/>
<path d="M367.5 235L370 237.5M390 257.5L387.5 255M377.5 245L380 247.5" stroke="#4EAAC8" stroke-width="5" stroke-linecap="round"/>
<path d="M407.5 215L410 212.5M430 192.5L427.5 195M417.5 205L420 202.5" stroke="#4EAAC8" stroke-width="5" stroke-linecap="round"/>
<path d="M446.25 295L448.75 292.5M468.75 272.5L466.25 275M456.25 285L458.75 282.5" stroke="#4EAAC8" stroke-width="5" stroke-linecap="round"/>
<path d="M367.5 295L370 292.5M390 272.5L387.5 275M377.5 285L380 282.5" stroke="#4EAAC8" stroke-width="5" stroke-linecap="round"/>
<defs>
<linearGradient id="paint0_linear_5680_59" x1="377.262" y1="3.12975e-05" x2="424.55" y2="240.166" gradientUnits="userSpaceOnUse">
<stop stop-color="#DEEFF5"/>
<stop offset="1" stop-color="white"/>
</linearGradient>
</defs>
</svg>
